<svg id="visual" viewBox="0 0 1920 800" width="1920" height="800" xmlns="http://www.w3.org/2000/svg" xmlns:xlink="http://www.w3.org/1999/xlink" version="1.1"><rect x="0" y="0" width="1920" height="800" fill="#213256"></rect><path d="M0 347L45.7 361.7C91.3 376.3 182.7 405.7 274.2 409.7C365.7 413.7 457.3 392.3 548.8 373.2C640.3 354 731.7 337 823 350.5C914.3 364 1005.7 408 1097 399.2C1188.3 390.3 1279.7 328.7 1371.2 301.7C1462.7 274.7 1554.3 282.3 1645.8 297.3C1737.3 312.3 1828.7 334.7 1874.3 345.8L1920 357L1920 801L1874.3 801C1828.7 801 1737.3 801 1645.8 801C1554.3 801 1462.7 801 1371.2 801C1279.7 801 1188.3 801 1097 801C1005.7 801 914.3 801 823 801C731.7 801 640.3 801 548.8 801C457.3 801 365.7 801 274.2 801C182.7 801 91.3 801 45.7 801L0 801Z" fill="#e99667"></path><path d="M0 364L45.7 385.2C91.3 406.3 182.7 448.7 274.2 458.3C365.7 468 457.3 445 548.8 443.2C640.3 441.3 731.7 460.7 823 455.7C914.3 450.7 1005.7 421.3 1097 421.8C1188.3 422.3 1279.7 452.7 1371.2 461.7C1462.7 470.7 1554.3 458.3 1645.8 446.5C1737.3 434.7 1828.7 423.3 1874.3 417.7L1920 412L1920 801L1874.3 801C1828.7 801 1737.3 801 1645.8 801C1554.3 801 1462.7 801 1371.2 801C1279.7 801 1188.3 801 1097 801C1005.7 801 914.3 801 823 801C731.7 801 640.3 801 548.8 801C457.3 801 365.7 801 274.2 801C182.7 801 91.3 801 45.7 801L0 801Z" fill="#cc7469"></path><path d="M0 597L45.7 579.7C91.3 562.3 182.7 527.7 274.2 512.7C365.7 497.7 457.3 502.3 548.8 505C640.3 507.7 731.7 508.3 823 509C914.3 509.7 1005.7 510.3 1097 513.2C1188.3 516 1279.7 521 1371.2 534.7C1462.7 548.3 1554.3 570.7 1645.8 566.7C1737.3 562.7 1828.7 532.3 1874.3 517.2L1920 502L1920 801L1874.3 801C1828.7 801 1737.3 801 1645.8 801C1554.3 801 1462.7 801 1371.2 801C1279.7 801 1188.3 801 1097 801C1005.7 801 914.3 801 823 801C731.7 801 640.3 801 548.8 801C457.3 801 365.7 801 274.2 801C182.7 801 91.3 801 45.7 801L0 801Z" fill="#a65967"></path><path d="M0 575L45.7 584.2C91.3 593.3 182.7 611.7 274.2 607.7C365.7 603.7 457.3 577.3 548.8 585C640.3 592.7 731.7 634.3 823 645.5C914.3 656.7 1005.7 637.3 1097 632.7C1188.3 628 1279.7 638 1371.2 633.2C1462.7 628.3 1554.3 608.7 1645.8 591.8C1737.3 575 1828.7 561 1874.3 554L1920 547L1920 801L1874.3 801C1828.7 801 1737.3 801 1645.8 801C1554.3 801 1462.7 801 1371.2 801C1279.7 801 1188.3 801 1097 801C1005.7 801 914.3 801 823 801C731.7 801 640.3 801 548.8 801C457.3 801 365.7 801 274.2 801C182.7 801 91.3 801 45.7 801L0 801Z" fill="#7a445e"></path><path d="M0 678L45.7 672C91.3 666 182.7 654 274.2 661.7C365.7 669.3 457.3 696.7 548.8 698C640.3 699.3 731.7 674.7 823 666.7C914.3 658.7 1005.7 667.3 1097 671.8C1188.3 676.3 1279.7 676.7 1371.2 678.5C1462.7 680.3 1554.3 683.7 1645.8 690.3C1737.3 697 1828.7 707 1874.3 712L1920 717L1920 801L1874.3 801C1828.7 801 1737.3 801 1645.8 801C1554.3 801 1462.7 801 1371.2 801C1279.7 801 1188.3 801 1097 801C1005.7 801 914.3 801 823 801C731.7 801 640.3 801 548.8 801C457.3 801 365.7 801 274.2 801C182.7 801 91.3 801 45.7 801L0 801Z" fill="#4e324d"></path></svg>