<svg id="visual" viewBox="0 0 1920 600" width="1920" height="600" xmlns="http://www.w3.org/2000/svg" xmlns:xlink="http://www.w3.org/1999/xlink" version="1.1"><rect x="0" y="0" width="1920" height="600" fill="#213256"></rect><path d="M0 321L40 325.8C80 330.7 160 340.3 240 353.8C320 367.3 400 384.7 480 391.2C560 397.7 640 393.3 720 394.5C800 395.7 880 402.3 960 384C1040 365.7 1120 322.3 1200 322.7C1280 323 1360 367 1440 384.7C1520 402.3 1600 393.7 1680 359.8C1760 326 1840 267 1880 237.5L1920 208L1920 0L1880 0C1840 0 1760 0 1680 0C1600 0 1520 0 1440 0C1360 0 1280 0 1200 0C1120 0 1040 0 960 0C880 0 800 0 720 0C640 0 560 0 480 0C400 0 320 0 240 0C160 0 80 0 40 0L0 0Z" fill="#e99667"></path><path d="M0 242L40 231C80 220 160 198 240 214.3C320 230.7 400 285.3 480 298.3C560 311.3 640 282.7 720 264C800 245.3 880 236.7 960 232.7C1040 228.7 1120 229.3 1200 234.7C1280 240 1360 250 1440 262C1520 274 1600 288 1680 298.2C1760 308.3 1840 314.7 1880 317.8L1920 321L1920 0L1880 0C1840 0 1760 0 1680 0C1600 0 1520 0 1440 0C1360 0 1280 0 1200 0C1120 0 1040 0 960 0C880 0 800 0 720 0C640 0 560 0 480 0C400 0 320 0 240 0C160 0 80 0 40 0L0 0Z" fill="#d97a6e"></path><path d="M0 178L40 199.3C80 220.7 160 263.3 240 273.5C320 283.7 400 261.3 480 258.5C560 255.7 640 272.3 720 260.3C800 248.3 880 207.7 960 210.5C1040 213.3 1120 259.7 1200 260.5C1280 261.3 1360 216.7 1440 192.8C1520 169 1600 166 1680 178.8C1760 191.7 1840 220.3 1880 234.7L1920 249L1920 0L1880 0C1840 0 1760 0 1680 0C1600 0 1520 0 1440 0C1360 0 1280 0 1200 0C1120 0 1040 0 960 0C880 0 800 0 720 0C640 0 560 0 480 0C400 0 320 0 240 0C160 0 80 0 40 0L0 0Z" fill="#bf6475"></path><path d="M0 261L40 241C80 221 160 181 240 170C320 159 400 177 480 175.2C560 173.3 640 151.7 720 144.8C800 138 880 146 960 167.8C1040 189.7 1120 225.3 1200 241.5C1280 257.7 1360 254.3 1440 238.8C1520 223.3 1600 195.7 1680 174.2C1760 152.7 1840 137.3 1880 129.7L1920 122L1920 0L1880 0C1840 0 1760 0 1680 0C1600 0 1520 0 1440 0C1360 0 1280 0 1200 0C1120 0 1040 0 960 0C880 0 800 0 720 0C640 0 560 0 480 0C400 0 320 0 240 0C160 0 80 0 40 0L0 0Z" fill="#9c5478"></path><path d="M0 125L40 130.7C80 136.3 160 147.7 240 148.5C320 149.3 400 139.7 480 145.8C560 152 640 174 720 185.2C800 196.3 880 196.7 960 185.3C1040 174 1120 151 1200 143.8C1280 136.7 1360 145.3 1440 152.2C1520 159 1600 164 1680 151.5C1760 139 1840 109 1880 94L1920 79L1920 0L1880 0C1840 0 1760 0 1680 0C1600 0 1520 0 1440 0C1360 0 1280 0 1200 0C1120 0 1040 0 960 0C880 0 800 0 720 0C640 0 560 0 480 0C400 0 320 0 240 0C160 0 80 0 40 0L0 0Z" fill="#744874"></path><path d="M0 52L40 57C80 62 160 72 240 83.8C320 95.7 400 109.3 480 110.2C560 111 640 99 720 97.7C800 96.3 880 105.7 960 110.3C1040 115 1120 115 1200 121.2C1280 127.3 1360 139.7 1440 134.2C1520 128.7 1600 105.3 1680 95C1760 84.7 1840 87.3 1880 88.7L1920 90L1920 0L1880 0C1840 0 1760 0 1680 0C1600 0 1520 0 1440 0C1360 0 1280 0 1200 0C1120 0 1040 0 960 0C880 0 800 0 720 0C640 0 560 0 480 0C400 0 320 0 240 0C160 0 80 0 40 0L0 0Z" fill="#4b3e69"></path><path d="M0 75L40 77C80 79 160 83 240 81.8C320 80.7 400 74.3 480 69.2C560 64 640 60 720 54.7C800 49.3 880 42.7 960 44.8C1040 47 1120 58 1200 63.3C1280 68.7 1360 68.3 1440 59.8C1520 51.3 1600 34.7 1680 39.2C1760 43.7 1840 69.3 1880 82.2L1920 95L1920 0L1880 0C1840 0 1760 0 1680 0C1600 0 1520 0 1440 0C1360 0 1280 0 1200 0C1120 0 1040 0 960 0C880 0 800 0 720 0C640 0 560 0 480 0C400 0 320 0 240 0C160 0 80 0 40 0L0 0Z" fill="#213256"></path></svg>