<svg id="visual" viewBox="0 0 1920 600" width="1920" height="600" xmlns="http://www.w3.org/2000/svg" xmlns:xlink="http://www.w3.org/1999/xlink" version="1.1"><rect x="0" y="0" width="1920" height="600" fill="#213256"></rect><path d="M0 225L45.7 226.5C91.3 228 182.7 231 274.2 232.7C365.7 234.3 457.3 234.7 548.8 216.5C640.3 198.3 731.7 161.7 823 143.8C914.3 126 1005.7 127 1097 149.8C1188.3 172.7 1279.7 217.3 1371.2 232.5C1462.7 247.7 1554.3 233.3 1645.8 229.7C1737.3 226 1828.7 233 1874.3 236.5L1920 240L1920 0L1874.3 0C1828.7 0 1737.3 0 1645.8 0C1554.3 0 1462.7 0 1371.2 0C1279.7 0 1188.3 0 1097 0C1005.7 0 914.3 0 823 0C731.7 0 640.3 0 548.8 0C457.3 0 365.7 0 274.2 0C182.7 0 91.3 0 45.7 0L0 0Z" fill="#e99667"></path><path d="M0 172L45.7 168.5C91.3 165 182.7 158 274.2 161.7C365.7 165.3 457.3 179.7 548.8 182.3C640.3 185 731.7 176 823 171.2C914.3 166.3 1005.7 165.7 1097 164.3C1188.3 163 1279.7 161 1371.2 169.2C1462.7 177.3 1554.3 195.7 1645.8 199.7C1737.3 203.7 1828.7 193.3 1874.3 188.2L1920 183L1920 0L1874.3 0C1828.7 0 1737.3 0 1645.8 0C1554.3 0 1462.7 0 1371.2 0C1279.7 0 1188.3 0 1097 0C1005.7 0 914.3 0 823 0C731.7 0 640.3 0 548.8 0C457.3 0 365.7 0 274.2 0C182.7 0 91.3 0 45.7 0L0 0Z" fill="#d57570"></path><path d="M0 163L45.7 158.5C91.3 154 182.7 145 274.2 133.8C365.7 122.7 457.3 109.3 548.8 103.5C640.3 97.7 731.7 99.3 823 102.3C914.3 105.3 1005.7 109.7 1097 106.2C1188.3 102.7 1279.7 91.3 1371.2 86.7C1462.7 82 1554.3 84 1645.8 94.5C1737.3 105 1828.7 124 1874.3 133.5L1920 143L1920 0L1874.3 0C1828.7 0 1737.3 0 1645.8 0C1554.3 0 1462.7 0 1371.2 0C1279.7 0 1188.3 0 1097 0C1005.7 0 914.3 0 823 0C731.7 0 640.3 0 548.8 0C457.3 0 365.7 0 274.2 0C182.7 0 91.3 0 45.7 0L0 0Z" fill="#b25d77"></path><path d="M0 58L45.7 70.7C91.3 83.3 182.7 108.7 274.2 123C365.7 137.3 457.3 140.7 548.8 134.2C640.3 127.7 731.7 111.3 823 98.2C914.3 85 1005.7 75 1097 72.8C1188.3 70.7 1279.7 76.3 1371.2 80.3C1462.7 84.3 1554.3 86.7 1645.8 85.7C1737.3 84.7 1828.7 80.3 1874.3 78.2L1920 76L1920 0L1874.3 0C1828.7 0 1737.3 0 1645.8 0C1554.3 0 1462.7 0 1371.2 0C1279.7 0 1188.3 0 1097 0C1005.7 0 914.3 0 823 0C731.7 0 640.3 0 548.8 0C457.3 0 365.7 0 274.2 0C182.7 0 91.3 0 45.7 0L0 0Z" fill="#854d77"></path><path d="M0 109L45.7 103.2C91.3 97.3 182.7 85.7 274.2 78.7C365.7 71.7 457.3 69.3 548.8 63.2C640.3 57 731.7 47 823 52.8C914.3 58.7 1005.7 80.3 1097 90.5C1188.3 100.7 1279.7 99.3 1371.2 98.7C1462.7 98 1554.3 98 1645.8 96.2C1737.3 94.3 1828.7 90.7 1874.3 88.8L1920 87L1920 0L1874.3 0C1828.7 0 1737.3 0 1645.8 0C1554.3 0 1462.7 0 1371.2 0C1279.7 0 1188.3 0 1097 0C1005.7 0 914.3 0 823 0C731.7 0 640.3 0 548.8 0C457.3 0 365.7 0 274.2 0C182.7 0 91.3 0 45.7 0L0 0Z" fill="#53406c"></path><path d="M0 64L45.7 56C91.3 48 182.7 32 274.2 28.3C365.7 24.7 457.3 33.3 548.8 34.8C640.3 36.3 731.7 30.7 823 29.5C914.3 28.3 1005.7 31.7 1097 38.7C1188.3 45.7 1279.7 56.3 1371.2 59.2C1462.7 62 1554.3 57 1645.8 56.5C1737.3 56 1828.7 60 1874.3 62L1920 64L1920 0L1874.3 0C1828.7 0 1737.3 0 1645.8 0C1554.3 0 1462.7 0 1371.2 0C1279.7 0 1188.3 0 1097 0C1005.7 0 914.3 0 823 0C731.7 0 640.3 0 548.8 0C457.3 0 365.7 0 274.2 0C182.7 0 91.3 0 45.7 0L0 0Z" fill="#213256"></path></svg>