<svg id="visual" viewBox="0 0 1920 400" width="1920" height="400" xmlns="http://www.w3.org/2000/svg" xmlns:xlink="http://www.w3.org/1999/xlink" version="1.1"><rect x="0" y="0" width="1920" height="400" fill="#213256"></rect><path d="M0 123L45.7 128.3C91.3 133.7 182.7 144.3 274.2 156.7C365.7 169 457.3 183 548.8 177.5C640.3 172 731.7 147 823 137C914.3 127 1005.7 132 1097 131C1188.3 130 1279.7 123 1371.2 119.2C1462.7 115.3 1554.3 114.7 1645.8 118.2C1737.3 121.7 1828.7 129.3 1874.3 133.2L1920 137L1920 0L1874.3 0C1828.7 0 1737.3 0 1645.8 0C1554.3 0 1462.7 0 1371.2 0C1279.7 0 1188.3 0 1097 0C1005.7 0 914.3 0 823 0C731.7 0 640.3 0 548.8 0C457.3 0 365.7 0 274.2 0C182.7 0 91.3 0 45.7 0L0 0Z" fill="#e99667"></path><path d="M0 115L45.7 112.2C91.3 109.3 182.7 103.7 274.2 104.8C365.7 106 457.3 114 548.8 112.2C640.3 110.3 731.7 98.7 823 92.8C914.3 87 1005.7 87 1097 94.2C1188.3 101.3 1279.7 115.7 1371.2 126C1462.7 136.3 1554.3 142.7 1645.8 135.2C1737.3 127.7 1828.7 106.3 1874.3 95.7L1920 85L1920 0L1874.3 0C1828.7 0 1737.3 0 1645.8 0C1554.3 0 1462.7 0 1371.2 0C1279.7 0 1188.3 0 1097 0C1005.7 0 914.3 0 823 0C731.7 0 640.3 0 548.8 0C457.3 0 365.7 0 274.2 0C182.7 0 91.3 0 45.7 0L0 0Z" fill="#bf6475"></path><path d="M0 65L45.7 67.8C91.3 70.7 182.7 76.3 274.2 76C365.7 75.7 457.3 69.3 548.8 70.7C640.3 72 731.7 81 823 81.7C914.3 82.3 1005.7 74.7 1097 68.8C1188.3 63 1279.7 59 1371.2 62C1462.7 65 1554.3 75 1645.8 74.8C1737.3 74.7 1828.7 64.3 1874.3 59.2L1920 54L1920 0L1874.3 0C1828.7 0 1737.3 0 1645.8 0C1554.3 0 1462.7 0 1371.2 0C1279.7 0 1188.3 0 1097 0C1005.7 0 914.3 0 823 0C731.7 0 640.3 0 548.8 0C457.3 0 365.7 0 274.2 0C182.7 0 91.3 0 45.7 0L0 0Z" fill="#744874"></path><path d="M0 47L45.7 49.5C91.3 52 182.7 57 274.2 57.8C365.7 58.7 457.3 55.3 548.8 50.3C640.3 45.3 731.7 38.7 823 37.8C914.3 37 1005.7 42 1097 43.3C1188.3 44.7 1279.7 42.3 1371.2 42.2C1462.7 42 1554.3 44 1645.8 47.8C1737.3 51.7 1828.7 57.3 1874.3 60.2L1920 63L1920 0L1874.3 0C1828.7 0 1737.3 0 1645.8 0C1554.3 0 1462.7 0 1371.2 0C1279.7 0 1188.3 0 1097 0C1005.7 0 914.3 0 823 0C731.7 0 640.3 0 548.8 0C457.3 0 365.7 0 274.2 0C182.7 0 91.3 0 45.7 0L0 0Z" fill="#213256"></path></svg>