<svg id="visual" viewBox="0 0 1920 600" width="1920" height="600" xmlns="http://www.w3.org/2000/svg" xmlns:xlink="http://www.w3.org/1999/xlink" version="1.1"><rect x="0" y="0" width="1920" height="600" fill="#213256"></rect><path d="M0 338L45.7 329C91.3 320 182.7 302 274.2 278C365.7 254 457.3 224 548.8 233.2C640.3 242.3 731.7 290.7 823 304C914.3 317.3 1005.7 295.7 1097 270.7C1188.3 245.7 1279.7 217.3 1371.2 221.8C1462.7 226.3 1554.3 263.7 1645.8 281.8C1737.3 300 1828.7 299 1874.3 298.5L1920 298L1920 0L1874.3 0C1828.7 0 1737.3 0 1645.8 0C1554.3 0 1462.7 0 1371.2 0C1279.7 0 1188.3 0 1097 0C1005.7 0 914.3 0 823 0C731.7 0 640.3 0 548.8 0C457.3 0 365.7 0 274.2 0C182.7 0 91.3 0 45.7 0L0 0Z" fill="#e99667"></path><path d="M0 306L45.7 302.5C91.3 299 182.7 292 274.2 291.5C365.7 291 457.3 297 548.8 293.5C640.3 290 731.7 277 823 260.2C914.3 243.3 1005.7 222.7 1097 204.7C1188.3 186.7 1279.7 171.3 1371.2 178.8C1462.7 186.3 1554.3 216.7 1645.8 224.7C1737.3 232.7 1828.7 218.3 1874.3 211.2L1920 204L1920 0L1874.3 0C1828.7 0 1737.3 0 1645.8 0C1554.3 0 1462.7 0 1371.2 0C1279.7 0 1188.3 0 1097 0C1005.7 0 914.3 0 823 0C731.7 0 640.3 0 548.8 0C457.3 0 365.7 0 274.2 0C182.7 0 91.3 0 45.7 0L0 0Z" fill="#d97a6e"></path><path d="M0 136L45.7 143.8C91.3 151.7 182.7 167.3 274.2 171C365.7 174.7 457.3 166.3 548.8 157.3C640.3 148.3 731.7 138.7 823 133.2C914.3 127.7 1005.7 126.3 1097 150.2C1188.3 174 1279.7 223 1371.2 238.7C1462.7 254.3 1554.3 236.7 1645.8 229.5C1737.3 222.3 1828.7 225.7 1874.3 227.3L1920 229L1920 0L1874.3 0C1828.7 0 1737.3 0 1645.8 0C1554.3 0 1462.7 0 1371.2 0C1279.7 0 1188.3 0 1097 0C1005.7 0 914.3 0 823 0C731.7 0 640.3 0 548.8 0C457.3 0 365.7 0 274.2 0C182.7 0 91.3 0 45.7 0L0 0Z" fill="#bf6475"></path><path d="M0 187L45.7 184.3C91.3 181.7 182.7 176.3 274.2 180.3C365.7 184.3 457.3 197.7 548.8 194.3C640.3 191 731.7 171 823 156C914.3 141 1005.7 131 1097 133.5C1188.3 136 1279.7 151 1371.2 152.8C1462.7 154.7 1554.3 143.3 1645.8 153.5C1737.3 163.7 1828.7 195.3 1874.3 211.2L1920 227L1920 0L1874.3 0C1828.7 0 1737.3 0 1645.8 0C1554.3 0 1462.7 0 1371.2 0C1279.7 0 1188.3 0 1097 0C1005.7 0 914.3 0 823 0C731.7 0 640.3 0 548.8 0C457.3 0 365.7 0 274.2 0C182.7 0 91.3 0 45.7 0L0 0Z" fill="#9c5478"></path><path d="M0 98L45.7 101.3C91.3 104.7 182.7 111.3 274.2 122.3C365.7 133.3 457.3 148.7 548.8 146.3C640.3 144 731.7 124 823 122.7C914.3 121.3 1005.7 138.7 1097 140.7C1188.3 142.7 1279.7 129.3 1371.2 118.3C1462.7 107.3 1554.3 98.7 1645.8 107.8C1737.3 117 1828.7 144 1874.3 157.5L1920 171L1920 0L1874.3 0C1828.7 0 1737.3 0 1645.8 0C1554.3 0 1462.7 0 1371.2 0C1279.7 0 1188.3 0 1097 0C1005.7 0 914.3 0 823 0C731.7 0 640.3 0 548.8 0C457.3 0 365.7 0 274.2 0C182.7 0 91.3 0 45.7 0L0 0Z" fill="#744874"></path><path d="M0 119L45.7 107C91.3 95 182.7 71 274.2 61.5C365.7 52 457.3 57 548.8 66.5C640.3 76 731.7 90 823 86.5C914.3 83 1005.7 62 1097 64.8C1188.3 67.7 1279.7 94.3 1371.2 104.5C1462.7 114.7 1554.3 108.3 1645.8 98.2C1737.3 88 1828.7 74 1874.3 67L1920 60L1920 0L1874.3 0C1828.7 0 1737.3 0 1645.8 0C1554.3 0 1462.7 0 1371.2 0C1279.7 0 1188.3 0 1097 0C1005.7 0 914.3 0 823 0C731.7 0 640.3 0 548.8 0C457.3 0 365.7 0 274.2 0C182.7 0 91.3 0 45.7 0L0 0Z" fill="#4b3e69"></path><path d="M0 41L45.7 40.2C91.3 39.3 182.7 37.7 274.2 35C365.7 32.3 457.3 28.7 548.8 25.8C640.3 23 731.7 21 823 30.8C914.3 40.7 1005.7 62.3 1097 72.7C1188.3 83 1279.7 82 1371.2 82.3C1462.7 82.7 1554.3 84.3 1645.8 83.2C1737.3 82 1828.7 78 1874.3 76L1920 74L1920 0L1874.3 0C1828.7 0 1737.3 0 1645.8 0C1554.3 0 1462.7 0 1371.2 0C1279.7 0 1188.3 0 1097 0C1005.7 0 914.3 0 823 0C731.7 0 640.3 0 548.8 0C457.3 0 365.7 0 274.2 0C182.7 0 91.3 0 45.7 0L0 0Z" fill="#213256"></path></svg>