<svg id="visual" viewBox="0 0 900 600" width="900" height="600" xmlns="http://www.w3.org/2000/svg" xmlns:xlink="http://www.w3.org/1999/xlink" version="1.1"><g stroke-width="2" stroke-linejoin="bevel"><path d="M499 253L527.5 186L430 184Z" fill="#e99667" stroke="#001122"></path><path d="M654 224L588.5 120L527.5 186Z" fill="#e99667" stroke="#001122"></path><path d="M527.5 186L438 66L430 184Z" fill="#9c5478" stroke="#001122"></path><path d="M318.5 284L525.5 339L499 253Z" fill="#e99667" stroke="#001122"></path><path d="M499 253L654 224L527.5 186Z" fill="#213256" stroke="#001122"></path><path d="M588.5 120L438 66L527.5 186Z" fill="#213256" stroke="#001122"></path><path d="M362.5 70L317.5 184L430 184Z" fill="#e1856b" stroke="#001122"></path><path d="M430 184L318.5 284L499 253Z" fill="#b25d77" stroke="#001122"></path><path d="M525.5 339L654 224L499 253Z" fill="#3a3962" stroke="#001122"></path><path d="M438 66L362.5 70L430 184Z" fill="#9c5478" stroke="#001122"></path><path d="M317.5 184L318.5 284L430 184Z" fill="#6c4672" stroke="#001122"></path><path d="M525.5 339L624 353L654 224Z" fill="#d57570" stroke="#001122"></path><path d="M654 224L643 74L588.5 120Z" fill="#213256" stroke="#001122"></path><path d="M551.5 0L426 0L438 66Z" fill="#9c5478" stroke="#001122"></path><path d="M551.5 0L438 66L588.5 120Z" fill="#3a3962" stroke="#001122"></path><path d="M438 66L382.5 0L362.5 70Z" fill="#b25d77" stroke="#001122"></path><path d="M643 74L551.5 0L588.5 120Z" fill="#3a3962" stroke="#001122"></path><path d="M426 0L382.5 0L438 66Z" fill="#213256" stroke="#001122"></path><path d="M362.5 70L264 118L317.5 184Z" fill="#53406c" stroke="#001122"></path><path d="M318.5 284L484 432L525.5 339Z" fill="#e1856b" stroke="#001122"></path><path d="M525.5 339L609.5 443L624 353Z" fill="#854d77" stroke="#001122"></path><path d="M197 0L264 118L362.5 70Z" fill="#9c5478" stroke="#001122"></path><path d="M317.5 184L206 254L318.5 284Z" fill="#3a3962" stroke="#001122"></path><path d="M624 353L713 272L654 224Z" fill="#213256" stroke="#001122"></path><path d="M654 224L745.5 218L643 74Z" fill="#3a3962" stroke="#001122"></path><path d="M713 272L745.5 218L654 224Z" fill="#6c4672" stroke="#001122"></path><path d="M484 432L609.5 443L525.5 339Z" fill="#e99667" stroke="#001122"></path><path d="M782.5 377L774.5 274L713 272Z" fill="#3a3962" stroke="#001122"></path><path d="M643 74L658 0L551.5 0Z" fill="#53406c" stroke="#001122"></path><path d="M805.5 0L658 0L643 74Z" fill="#9c5478" stroke="#001122"></path><path d="M181 160L206 254L317.5 184Z" fill="#9c5478" stroke="#001122"></path><path d="M318.5 284L307.5 430L484 432Z" fill="#e1856b" stroke="#001122"></path><path d="M238 415L307.5 430L318.5 284Z" fill="#c56874" stroke="#001122"></path><path d="M484 432L554.5 527L609.5 443Z" fill="#e99667" stroke="#001122"></path><path d="M115.5 74L181 160L264 118Z" fill="#6c4672" stroke="#001122"></path><path d="M264 118L181 160L317.5 184Z" fill="#e1856b" stroke="#001122"></path><path d="M713 272L774.5 274L745.5 218Z" fill="#3a3962" stroke="#001122"></path><path d="M745.5 218L833.5 78L643 74Z" fill="#213256" stroke="#001122"></path><path d="M782.5 377L713 272L624 353Z" fill="#6c4672" stroke="#001122"></path><path d="M111.5 365L238 415L206 254Z" fill="#b25d77" stroke="#001122"></path><path d="M206 254L238 415L318.5 284Z" fill="#6c4672" stroke="#001122"></path><path d="M383.5 539L492 532L484 432Z" fill="#213256" stroke="#001122"></path><path d="M383.5 539L484 432L307.5 430Z" fill="#3a3962" stroke="#001122"></path><path d="M492 532L554.5 527L484 432Z" fill="#b25d77" stroke="#001122"></path><path d="M702 492L782.5 377L624 353Z" fill="#c56874" stroke="#001122"></path><path d="M258 529L383.5 539L307.5 430Z" fill="#213256" stroke="#001122"></path><path d="M382.5 0L197 0L362.5 70Z" fill="#e99667" stroke="#001122"></path><path d="M702 492L624 353L609.5 443Z" fill="#53406c" stroke="#001122"></path><path d="M554.5 527L702 492L609.5 443Z" fill="#e1856b" stroke="#001122"></path><path d="M900 188L745.5 218L774.5 274Z" fill="#854d77" stroke="#001122"></path><path d="M900 188L833.5 78L745.5 218Z" fill="#6c4672" stroke="#001122"></path><path d="M197 0L115.5 74L264 118Z" fill="#d57570" stroke="#001122"></path><path d="M181 160L82.5 206L206 254Z" fill="#d57570" stroke="#001122"></path><path d="M833.5 78L805.5 0L643 74Z" fill="#3a3962" stroke="#001122"></path><path d="M238 415L258 529L307.5 430Z" fill="#b25d77" stroke="#001122"></path><path d="M137.5 490L258 529L238 415Z" fill="#6c4672" stroke="#001122"></path><path d="M492 532L491 600L554.5 527Z" fill="#e99667" stroke="#001122"></path><path d="M554.5 527L563.5 600L702 492Z" fill="#213256" stroke="#001122"></path><path d="M383.5 539L491 600L492 532Z" fill="#e1856b" stroke="#001122"></path><path d="M385.5 600L491 600L383.5 539Z" fill="#854d77" stroke="#001122"></path><path d="M115.5 74L82.5 206L181 160Z" fill="#854d77" stroke="#001122"></path><path d="M69.5 331L111.5 365L206 254Z" fill="#c56874" stroke="#001122"></path><path d="M491 600L563.5 600L554.5 527Z" fill="#3a3962" stroke="#001122"></path><path d="M273 600L385.5 600L383.5 539Z" fill="#53406c" stroke="#001122"></path><path d="M900 320L900 188L774.5 274Z" fill="#854d77" stroke="#001122"></path><path d="M833.5 78L900 0L805.5 0Z" fill="#6c4672" stroke="#001122"></path><path d="M82.5 206L69.5 331L206 254Z" fill="#854d77" stroke="#001122"></path><path d="M111.5 365L137.5 490L238 415Z" fill="#53406c" stroke="#001122"></path><path d="M900 381L900 320L782.5 377Z" fill="#b25d77" stroke="#001122"></path><path d="M782.5 377L900 320L774.5 274Z" fill="#c56874" stroke="#001122"></path><path d="M900 188L900 68L833.5 78Z" fill="#213256" stroke="#001122"></path><path d="M197 0L84.5 0L115.5 74Z" fill="#6c4672" stroke="#001122"></path><path d="M0 150L0 215L82.5 206Z" fill="#6c4672" stroke="#001122"></path><path d="M82.5 206L0 282L69.5 331Z" fill="#854d77" stroke="#001122"></path><path d="M0 398L137.5 490L111.5 365Z" fill="#e1856b" stroke="#001122"></path><path d="M258 529L273 600L383.5 539Z" fill="#d57570" stroke="#001122"></path><path d="M89.5 600L273 600L258 529Z" fill="#854d77" stroke="#001122"></path><path d="M827.5 550L900 381L782.5 377Z" fill="#213256" stroke="#001122"></path><path d="M827.5 550L782.5 377L702 492Z" fill="#213256" stroke="#001122"></path><path d="M563.5 600L722 600L702 492Z" fill="#d57570" stroke="#001122"></path><path d="M900 68L900 0L833.5 78Z" fill="#53406c" stroke="#001122"></path><path d="M69.5 331L0 398L111.5 365Z" fill="#854d77" stroke="#001122"></path><path d="M0 150L82.5 206L115.5 74Z" fill="#53406c" stroke="#001122"></path><path d="M0 0L0 150L115.5 74Z" fill="#d57570" stroke="#001122"></path><path d="M0 215L0 282L82.5 206Z" fill="#e99667" stroke="#001122"></path><path d="M780.5 600L827.5 550L702 492Z" fill="#d57570" stroke="#001122"></path><path d="M722 600L780.5 600L702 492Z" fill="#e99667" stroke="#001122"></path><path d="M0 282L0 398L69.5 331Z" fill="#e99667" stroke="#001122"></path><path d="M137.5 490L89.5 600L258 529Z" fill="#9c5478" stroke="#001122"></path><path d="M84.5 0L0 0L115.5 74Z" fill="#e99667" stroke="#001122"></path><path d="M900 600L900 547L827.5 550Z" fill="#b25d77" stroke="#001122"></path><path d="M827.5 550L900 547L900 381Z" fill="#9c5478" stroke="#001122"></path><path d="M0 496L89.5 600L137.5 490Z" fill="#e99667" stroke="#001122"></path><path d="M0 398L0 496L137.5 490Z" fill="#e99667" stroke="#001122"></path><path d="M780.5 600L900 600L827.5 550Z" fill="#d57570" stroke="#001122"></path><path d="M0 496L0 600L89.5 600Z" fill="#d57570" stroke="#001122"></path></g></svg>