<svg id="visual" viewBox="0 0 900 675" width="900" height="675" xmlns="http://www.w3.org/2000/svg" xmlns:xlink="http://www.w3.org/1999/xlink" version="1.1">
<rect x="0" y="0" width="900" height="675" fill="#213256">
</rect><path d="M0 474L21.5 473.3C43 472.7 86 471.3 128.8 466C171.7 460.7 214.3 451.3 257.2 444.5C300 437.7 343 433.3 385.8 436.8C428.7 440.3 471.3 451.7 514.2 454.8C557 458 600 453 642.8 441.5C685.7 430 728.3 412 771.2 406.3C814 400.7 857 407.3 878.5 410.7L900 414L900 676L878.5 676C857 676 814 676 771.2 676C728.3 676 685.7 676 642.8 676C600 676 557 676 514.2 676C471.3 676 428.7 676 385.8 676C343 676 300 676 257.2 676C214.3 676 171.7 676 128.8 676C86 676 43 676 21.5 676L0 676Z" fill="#e99667"></path><path d="M0 441L21.5 438.7C43 436.3 86 431.7 128.8 428.7C171.7 425.7 214.3 424.3 257.2 431C300 437.7 343 452.3 385.8 465.3C428.7 478.3 471.3 489.7 514.2 485.3C557 481 600 461 642.8 454C685.7 447 728.3 453 771.2 462.3C814 471.7 857 484.3 878.5 490.7L900 497L900 676L878.5 676C857 676 814 676 771.2 676C728.3 676 685.7 676 642.8 676C600 676 557 676 514.2 676C471.3 676 428.7 676 385.8 676C343 676 300 676 257.2 676C214.3 676 171.7 676 128.8 676C86 676 43 676 21.5 676L0 676Z" fill="#d97a6e"></path><path d="M0 463L21.5 471.5C43 480 86 497 128.8 508C171.7 519 214.3 524 257.2 516.5C300 509 343 489 385.8 479.7C428.7 470.3 471.3 471.7 514.2 480C557 488.3 600 503.7 642.8 508.3C685.7 513 728.3 507 771.2 508.5C814 510 857 519 878.5 523.5L900 528L900 676L878.5 676C857 676 814 676 771.2 676C728.3 676 685.7 676 642.8 676C600 676 557 676 514.2 676C471.3 676 428.7 676 385.8 676C343 676 300 676 257.2 676C214.3 676 171.7 676 128.8 676C86 676 43 676 21.5 676L0 676Z" fill="#bf6475"></path><path d="M0 551L21.5 545.8C43 540.7 86 530.3 128.8 524.7C171.7 519 214.3 518 257.2 517.8C300 517.7 343 518.3 385.8 524.2C428.7 530 471.3 541 514.2 543.5C557 546 600 540 642.8 536.3C685.7 532.7 728.3 531.3 771.2 529.8C814 528.3 857 526.7 878.5 525.8L900 525L900 676L878.5 676C857 676 814 676 771.2 676C728.3 676 685.7 676 642.8 676C600 676 557 676 514.2 676C471.3 676 428.7 676 385.8 676C343 676 300 676 257.2 676C214.3 676 171.7 676 128.8 676C86 676 43 676 21.5 676L0 676Z" fill="#9c5478"></path><path d="M0 548L21.5 551.3C43 554.7 86 561.3 128.8 560.3C171.7 559.3 214.3 550.7 257.2 549.8C300 549 343 556 385.8 563.5C428.7 571 471.3 579 514.2 578.2C557 577.3 600 567.7 642.8 560.8C685.7 554 728.3 550 771.2 546.3C814 542.7 857 539.3 878.5 537.7L900 536L900 676L878.5 676C857 676 814 676 771.2 676C728.3 676 685.7 676 642.8 676C600 676 557 676 514.2 676C471.3 676 428.7 676 385.8 676C343 676 300 676 257.2 676C214.3 676 171.7 676 128.8 676C86 676 43 676 21.5 676L0 676Z" fill="#744874"></path><path d="M0 619L21.5 618C43 617 86 615 128.8 610C171.7 605 214.3 597 257.2 597.3C300 597.7 343 606.3 385.8 607.8C428.7 609.3 471.3 603.7 514.2 600C557 596.3 600 594.7 642.8 595C685.7 595.3 728.3 597.7 771.2 595.8C814 594 857 588 878.5 585L900 582L900 676L878.5 676C857 676 814 676 771.2 676C728.3 676 685.7 676 642.8 676C600 676 557 676 514.2 676C471.3 676 428.7 676 385.8 676C343 676 300 676 257.2 676C214.3 676 171.7 676 128.8 676C86 676 43 676 21.5 676L0 676Z" fill="#4b3e69"></path><path d="M0 646L21.5 644C43 642 86 638 128.8 634.2C171.7 630.3 214.3 626.7 257.2 629.2C300 631.7 343 640.3 385.8 639.3C428.7 638.3 471.3 627.7 514.2 624.3C557 621 600 625 642.8 624.2C685.7 623.3 728.3 617.7 771.2 620C814 622.3 857 632.7 878.5 637.8L900 643L900 676L878.5 676C857 676 814 676 771.2 676C728.3 676 685.7 676 642.8 676C600 676 557 676 514.2 676C471.3 676 428.7 676 385.8 676C343 676 300 676 257.2 676C214.3 676 171.7 676 128.8 676C86 676 43 676 21.5 676L0 676Z" fill="#213256"></path></svg>