<svg id="visual" viewBox="0 0 1920 1080" width="1920" height="1080" xmlns="http://www.w3.org/2000/svg" xmlns:xlink="http://www.w3.org/1999/xlink" version="1.1"><rect x="0" y="0" width="1920" height="1080" fill="#213256"></rect><path d="M679 0L657.2 25.7C635.3 51.3 591.7 102.7 585.7 154.2C579.7 205.7 611.3 257.3 639.8 308.8C668.3 360.3 693.7 411.7 673.3 463C653 514.3 587 565.7 600.3 617C613.7 668.3 706.3 719.7 746.8 771.2C787.3 822.7 775.7 874.3 753.2 925.8C730.7 977.3 697.3 1028.7 680.7 1054.3L664 1080L0 1080L0 1054.3C0 1028.7 0 977.3 0 925.8C0 874.3 0 822.7 0 771.2C0 719.7 0 668.3 0 617C0 565.7 0 514.3 0 463C0 411.7 0 360.3 0 308.8C0 257.3 0 205.7 0 154.2C0 102.7 0 51.3 0 25.7L0 0Z" fill="#e99667"></path><path d="M653 0L621.2 25.7C589.3 51.3 525.7 102.7 511.3 154.2C497 205.7 532 257.3 535 308.8C538 360.3 509 411.7 516.5 463C524 514.3 568 565.7 567.3 617C566.7 668.3 521.3 719.7 507.7 771.2C494 822.7 512 874.3 529.5 925.8C547 977.3 564 1028.7 572.5 1054.3L581 1080L0 1080L0 1054.3C0 1028.7 0 977.3 0 925.8C0 874.3 0 822.7 0 771.2C0 719.7 0 668.3 0 617C0 565.7 0 514.3 0 463C0 411.7 0 360.3 0 308.8C0 257.3 0 205.7 0 154.2C0 102.7 0 51.3 0 25.7L0 0Z" fill="#cc7469"></path><path d="M304 0L330 25.7C356 51.3 408 102.7 430.5 154.2C453 205.7 446 257.3 442 308.8C438 360.3 437 411.7 436 463C435 514.3 434 565.7 429.7 617C425.3 668.3 417.7 719.7 397.2 771.2C376.7 822.7 343.3 874.3 349.3 925.8C355.3 977.3 400.7 1028.7 423.3 1054.3L446 1080L0 1080L0 1054.3C0 1028.7 0 977.3 0 925.8C0 874.3 0 822.7 0 771.2C0 719.7 0 668.3 0 617C0 565.7 0 514.3 0 463C0 411.7 0 360.3 0 308.8C0 257.3 0 205.7 0 154.2C0 102.7 0 51.3 0 25.7L0 0Z" fill="#a65967"></path><path d="M336 0L322.5 25.7C309 51.3 282 102.7 288 154.2C294 205.7 333 257.3 321.5 308.8C310 360.3 248 411.7 231.5 463C215 514.3 244 565.7 250.8 617C257.7 668.3 242.3 719.7 249.5 771.2C256.7 822.7 286.3 874.3 311.5 925.8C336.7 977.3 357.3 1028.7 367.7 1054.3L378 1080L0 1080L0 1054.3C0 1028.7 0 977.3 0 925.8C0 874.3 0 822.7 0 771.2C0 719.7 0 668.3 0 617C0 565.7 0 514.3 0 463C0 411.7 0 360.3 0 308.8C0 257.3 0 205.7 0 154.2C0 102.7 0 51.3 0 25.7L0 0Z" fill="#7a445e"></path><path d="M182 0L191 25.7C200 51.3 218 102.7 206.5 154.2C195 205.7 154 257.3 152 308.8C150 360.3 187 411.7 199.2 463C211.3 514.3 198.7 565.7 191.8 617C185 668.3 184 719.7 181.3 771.2C178.7 822.7 174.3 874.3 164.5 925.8C154.7 977.3 139.3 1028.7 131.7 1054.3L124 1080L0 1080L0 1054.3C0 1028.7 0 977.3 0 925.8C0 874.3 0 822.7 0 771.2C0 719.7 0 668.3 0 617C0 565.7 0 514.3 0 463C0 411.7 0 360.3 0 308.8C0 257.3 0 205.7 0 154.2C0 102.7 0 51.3 0 25.7L0 0Z" fill="#4e324d"></path></svg>