<svg id="visual" viewBox="0 0 900 600" width="900" height="600" xmlns="http://www.w3.org/2000/svg" xmlns:xlink="http://www.w3.org/1999/xlink" version="1.1"><path d="M0 157L15 166.5C30 176 60 195 90 199.3C120 203.7 150 193.3 180 188.7C210 184 240 185 270 188C300 191 330 196 360 203.2C390 210.3 420 219.7 450 219.3C480 219 510 209 540 193C570 177 600 155 630 149.7C660 144.3 690 155.7 720 163C750 170.3 780 173.7 810 181.5C840 189.3 870 201.7 885 207.8L900 214L900 601L885 601C870 601 840 601 810 601C780 601 750 601 720 601C690 601 660 601 630 601C600 601 570 601 540 601C510 601 480 601 450 601C420 601 390 601 360 601C330 601 300 601 270 601C240 601 210 601 180 601C150 601 120 601 90 601C60 601 30 601 15 601L0 601Z" fill="#e99667"></path><path d="M0 271L15 273.8C30 276.7 60 282.3 90 285.7C120 289 150 290 180 281C210 272 240 253 270 246.3C300 239.7 330 245.3 360 240.2C390 235 420 219 450 222.8C480 226.7 510 250.3 540 258.7C570 267 600 260 630 254.5C660 249 690 245 720 243.8C750 242.7 780 244.3 810 238.2C840 232 870 218 885 211L900 204L900 601L885 601C870 601 840 601 810 601C780 601 750 601 720 601C690 601 660 601 630 601C600 601 570 601 540 601C510 601 480 601 450 601C420 601 390 601 360 601C330 601 300 601 270 601C240 601 210 601 180 601C150 601 120 601 90 601C60 601 30 601 15 601L0 601Z" fill="#d97a6e"></path><path d="M0 301L15 305.7C30 310.3 60 319.7 90 315.3C120 311 150 293 180 290.5C210 288 240 301 270 311.7C300 322.3 330 330.7 360 331.2C390 331.7 420 324.3 450 312.2C480 300 510 283 540 275.3C570 267.7 600 269.3 630 270.3C660 271.3 690 271.7 720 275C750 278.3 780 284.7 810 295C840 305.3 870 319.7 885 326.8L900 334L900 601L885 601C870 601 840 601 810 601C780 601 750 601 720 601C690 601 660 601 630 601C600 601 570 601 540 601C510 601 480 601 450 601C420 601 390 601 360 601C330 601 300 601 270 601C240 601 210 601 180 601C150 601 120 601 90 601C60 601 30 601 15 601L0 601Z" fill="#bf6475"></path><path d="M0 374L15 366.3C30 358.7 60 343.3 90 335C120 326.7 150 325.3 180 334.3C210 343.3 240 362.7 270 368.8C300 375 330 368 360 364.3C390 360.7 420 360.3 450 353C480 345.7 510 331.3 540 330C570 328.7 600 340.3 630 348.5C660 356.7 690 361.3 720 357.5C750 353.7 780 341.3 810 342.2C840 343 870 357 885 364L900 371L900 601L885 601C870 601 840 601 810 601C780 601 750 601 720 601C690 601 660 601 630 601C600 601 570 601 540 601C510 601 480 601 450 601C420 601 390 601 360 601C330 601 300 601 270 601C240 601 210 601 180 601C150 601 120 601 90 601C60 601 30 601 15 601L0 601Z" fill="#9c5478"></path><path d="M0 386L15 386C30 386 60 386 90 387.7C120 389.3 150 392.7 180 399.5C210 406.3 240 416.7 270 416.2C300 415.7 330 404.3 360 396.5C390 388.7 420 384.3 450 391C480 397.7 510 415.3 540 417.8C570 420.3 600 407.7 630 408.7C660 409.7 690 424.3 720 426.5C750 428.7 780 418.3 810 413.7C840 409 870 410 885 410.5L900 411L900 601L885 601C870 601 840 601 810 601C780 601 750 601 720 601C690 601 660 601 630 601C600 601 570 601 540 601C510 601 480 601 450 601C420 601 390 601 360 601C330 601 300 601 270 601C240 601 210 601 180 601C150 601 120 601 90 601C60 601 30 601 15 601L0 601Z" fill="#744874"></path><path d="M0 447L15 454.2C30 461.3 60 475.7 90 483.5C120 491.3 150 492.7 180 486.7C210 480.7 240 467.3 270 467.2C300 467 330 480 360 480.7C390 481.3 420 469.7 450 463.5C480 457.3 510 456.7 540 463C570 469.3 600 482.7 630 483.5C660 484.3 690 472.7 720 471.2C750 469.7 780 478.3 810 477C840 475.7 870 464.3 885 458.7L900 453L900 601L885 601C870 601 840 601 810 601C780 601 750 601 720 601C690 601 660 601 630 601C600 601 570 601 540 601C510 601 480 601 450 601C420 601 390 601 360 601C330 601 300 601 270 601C240 601 210 601 180 601C150 601 120 601 90 601C60 601 30 601 15 601L0 601Z" fill="#4b3e69"></path><path d="M0 525L15 526C30 527 60 529 90 527.8C120 526.7 150 522.3 180 518.3C210 514.3 240 510.7 270 508.8C300 507 330 507 360 506.7C390 506.3 420 505.7 450 505.8C480 506 510 507 540 508.2C570 509.3 600 510.7 630 512.2C660 513.7 690 515.3 720 520.8C750 526.3 780 535.7 810 539.5C840 543.3 870 541.7 885 540.8L900 540L900 601L885 601C870 601 840 601 810 601C780 601 750 601 720 601C690 601 660 601 630 601C600 601 570 601 540 601C510 601 480 601 450 601C420 601 390 601 360 601C330 601 300 601 270 601C240 601 210 601 180 601C150 601 120 601 90 601C60 601 30 601 15 601L0 601Z" fill="#213256"></path></svg>