<svg id="visual" viewBox="0 0 1920 800" width="1920" height="800" xmlns="http://www.w3.org/2000/svg" xmlns:xlink="http://www.w3.org/1999/xlink" version="1.1"><path d="M0 210L32 222.7C64 235.3 128 260.7 192 266.3C256 272 320 258 384 251.8C448 245.7 512 247.3 576 251.5C640 255.7 704 262.3 768 271.7C832 281 896 293 960 292.3C1024 291.7 1088 278.3 1152 257.2C1216 236 1280 207 1344 200C1408 193 1472 208 1536 217.8C1600 227.7 1664 232.3 1728 242.8C1792 253.3 1856 269.7 1888 277.8L1920 286L1920 801L1888 801C1856 801 1792 801 1728 801C1664 801 1600 801 1536 801C1472 801 1408 801 1344 801C1280 801 1216 801 1152 801C1088 801 1024 801 960 801C896 801 832 801 768 801C704 801 640 801 576 801C512 801 448 801 384 801C320 801 256 801 192 801C128 801 64 801 32 801L0 801Z" fill="#e99667"></path><path d="M0 362L32 365.8C64 369.7 128 377.3 192 381.7C256 386 320 387 384 375C448 363 512 338 576 329.2C640 320.3 704 327.7 768 320.7C832 313.7 896 292.3 960 297.5C1024 302.7 1088 334.3 1152 345.3C1216 356.3 1280 346.7 1344 339.2C1408 331.7 1472 326.3 1536 324.8C1600 323.3 1664 325.7 1728 317.5C1792 309.3 1856 290.7 1888 281.3L1920 272L1920 801L1888 801C1856 801 1792 801 1728 801C1664 801 1600 801 1536 801C1472 801 1408 801 1344 801C1280 801 1216 801 1152 801C1088 801 1024 801 960 801C896 801 832 801 768 801C704 801 640 801 576 801C512 801 448 801 384 801C320 801 256 801 192 801C128 801 64 801 32 801L0 801Z" fill="#d97a6e"></path><path d="M0 402L32 408.2C64 414.3 128 426.7 192 420.8C256 415 320 391 384 387.7C448 384.3 512 401.7 576 416C640 430.3 704 441.7 768 442.5C832 443.3 896 433.7 960 417.3C1024 401 1088 378 1152 367.5C1216 357 1280 359 1344 360.3C1408 361.7 1472 362.3 1536 366.8C1600 371.3 1664 379.7 1728 393.5C1792 407.3 1856 426.7 1888 436.3L1920 446L1920 801L1888 801C1856 801 1792 801 1728 801C1664 801 1600 801 1536 801C1472 801 1408 801 1344 801C1280 801 1216 801 1152 801C1088 801 1024 801 960 801C896 801 832 801 768 801C704 801 640 801 576 801C512 801 448 801 384 801C320 801 256 801 192 801C128 801 64 801 32 801L0 801Z" fill="#bf6475"></path><path d="M0 499L32 488.8C64 478.7 128 458.3 192 447.3C256 436.3 320 434.7 384 446.7C448 458.7 512 484.3 576 492.3C640 500.3 704 490.7 768 485.7C832 480.7 896 480.3 960 470.7C1024 461 1088 442 1152 440.3C1216 438.7 1280 454.3 1344 465.2C1408 476 1472 482 1536 476.7C1600 471.3 1664 454.7 1728 455.8C1792 457 1856 476 1888 485.5L1920 495L1920 801L1888 801C1856 801 1792 801 1728 801C1664 801 1600 801 1536 801C1472 801 1408 801 1344 801C1280 801 1216 801 1152 801C1088 801 1024 801 960 801C896 801 832 801 768 801C704 801 640 801 576 801C512 801 448 801 384 801C320 801 256 801 192 801C128 801 64 801 32 801L0 801Z" fill="#9c5478"></path><path d="M0 516L32 515.8C64 515.7 128 515.3 192 517.5C256 519.7 320 524.3 384 533.3C448 542.3 512 555.7 576 555C640 554.3 704 539.7 768 529.3C832 519 896 513 960 521.8C1024 530.7 1088 554.3 1152 557.7C1216 561 1280 544 1344 545.3C1408 546.7 1472 566.3 1536 569.2C1600 572 1664 558 1728 551.8C1792 545.7 1856 547.3 1888 548.2L1920 549L1920 801L1888 801C1856 801 1792 801 1728 801C1664 801 1600 801 1536 801C1472 801 1408 801 1344 801C1280 801 1216 801 1152 801C1088 801 1024 801 960 801C896 801 832 801 768 801C704 801 640 801 576 801C512 801 448 801 384 801C320 801 256 801 192 801C128 801 64 801 32 801L0 801Z" fill="#744874"></path><path d="M0 596L32 605.7C64 615.3 128 634.7 192 645.2C256 655.7 320 657.3 384 649.3C448 641.3 512 623.7 576 623.5C640 623.3 704 640.7 768 641.3C832 642 896 626 960 617.7C1024 609.3 1088 608.7 1152 617.2C1216 625.7 1280 643.3 1344 644.7C1408 646 1472 631 1536 629C1600 627 1664 638 1728 636.2C1792 634.3 1856 619.7 1888 612.3L1920 605L1920 801L1888 801C1856 801 1792 801 1728 801C1664 801 1600 801 1536 801C1472 801 1408 801 1344 801C1280 801 1216 801 1152 801C1088 801 1024 801 960 801C896 801 832 801 768 801C704 801 640 801 576 801C512 801 448 801 384 801C320 801 256 801 192 801C128 801 64 801 32 801L0 801Z" fill="#4b3e69"></path><path d="M0 701L32 702.2C64 703.3 128 705.7 192 704C256 702.3 320 696.7 384 691.5C448 686.3 512 681.7 576 679.2C640 676.7 704 676.3 768 675.7C832 675 896 674 960 674.3C1024 674.7 1088 676.3 1152 677.8C1216 679.3 1280 680.7 1344 682.5C1408 684.3 1472 686.7 1536 694.2C1600 701.7 1664 714.3 1728 719.5C1792 724.7 1856 722.3 1888 721.2L1920 720L1920 801L1888 801C1856 801 1792 801 1728 801C1664 801 1600 801 1536 801C1472 801 1408 801 1344 801C1280 801 1216 801 1152 801C1088 801 1024 801 960 801C896 801 832 801 768 801C704 801 640 801 576 801C512 801 448 801 384 801C320 801 256 801 192 801C128 801 64 801 32 801L0 801Z" fill="#213256"></path></svg>